<svg width="48" height="48" viewBox="0 0 48 48" fill="none" xmlns="http://www.w3.org/2000/svg">
<path d="M34 10.6668H14V12.0002H34V10.6668Z" fill="#fff"/>
<path d="M31.3043 8H16.6947V9.3334H31.3043V8Z" fill="#fff"/>
<path d="M31.3332 13.3327H16.6668C15.9595 13.3327 15.2812 13.6136 14.7811 14.1137C14.281 14.6139 14 15.2922 14 15.9994C14 16.7067 14.281 17.385 14.7811 17.8851C15.2812 18.3853 15.9595 18.6662 16.6668 18.6662V17.3328C16.4032 17.3323 16.1457 17.2536 15.9268 17.1068C15.7078 16.9599 15.5374 16.7515 15.4369 16.5078C15.3364 16.2641 15.3104 15.9961 15.3622 15.7376C15.4139 15.4791 15.5411 15.2418 15.7277 15.0556C15.9143 14.8694 16.1519 14.7427 16.4105 14.6915C16.6691 14.6402 16.937 14.6668 17.1805 14.7678C17.424 14.8688 17.6321 15.0397 17.7785 15.2589C17.9248 15.4782 18.003 15.7358 18.003 15.9994V36.9809H19.3364V15.9994C19.3366 15.53 19.2122 15.0689 18.976 14.6633H20.667V38.3143H22.0004V14.6633H23.3338V39.6477H24.6672V14.6633H26.0006V38.3143H27.333V14.6633H29.024C28.7892 15.0684 28.6659 15.5284 28.6664 15.9966V36.9809H29.9998V15.9994C29.9998 15.7357 30.078 15.4779 30.2245 15.2586C30.371 15.0394 30.5793 14.8685 30.8229 14.7675C31.0666 14.6666 31.3347 14.6402 31.5933 14.6917C31.852 14.7431 32.0896 14.8701 32.2761 15.0566C32.4625 15.2431 32.5895 15.4807 32.641 15.7393C32.6924 15.998 32.666 16.2661 32.5651 16.5097C32.4642 16.7534 32.2933 16.9616 32.074 17.1081C31.8547 17.2546 31.5969 17.3328 31.3332 17.3328V18.6672C32.0405 18.6672 32.7188 18.3862 33.2189 17.8861C33.719 17.386 34 16.7077 34 16.0004C34 15.2931 33.719 14.6148 33.2189 14.1147C32.7188 13.6145 32.0405 13.3327 31.3332 13.3327Z" fill="#fff"/>
</svg>
