<svg width="12" height="24" viewBox="0 0 12 24" fill="none" xmlns="http://www.w3.org/2000/svg">
<path fill-rule="evenodd" clip-rule="evenodd" d="M1.37985 0.925003C1.21629 1.0065 1.0843 1.11741 1.00094 1.24339C0.889839 1.41129 0.873006 1.4852 0.873006 1.80574C0.873006 2.11349 0.890792 2.19885 0.980106 2.31968L1.08725 2.46455L0.875867 2.60999C0.0399559 3.18511 -0.246342 4.37632 0.230313 5.29616C0.620755 6.04972 1.36421 6.46419 2.2427 6.41808C2.70891 6.39362 3.14003 6.22009 3.46576 5.92578L3.66255 5.74801V6.39734V7.04661H3.40029C2.97418 7.04661 2.94729 7.09754 2.94729 7.90493C2.94729 8.71233 2.97418 8.76326 3.40029 8.76326H3.66255V13.597V18.4308L3.44597 18.4552C2.62069 18.5483 2.22505 19.5801 2.78897 20.1688L2.91171 20.297L2.68254 20.7053L2.45337 21.1136H1.92288C1.4508 21.1136 1.36573 21.1269 1.15001 21.2344C0.560529 21.5281 0.40832 22.2825 0.837386 22.7837C1.18505 23.1899 0.80372 23.1619 5.9991 23.1619C11.1945 23.1619 10.8131 23.1899 11.1608 22.7837C11.5899 22.2825 11.4377 21.5281 10.8482 21.2344C10.6325 21.1269 10.5474 21.1136 10.0753 21.1136H9.54483L9.31709 20.7079L9.0894 20.3022L9.23202 20.1398C9.76299 19.535 9.36139 18.5465 8.54741 18.4547L8.33565 18.4308V13.597V8.76326H8.56344C8.69247 8.76326 8.83724 8.73107 8.89723 8.68901C8.99865 8.61801 9.00323 8.58425 9.00323 7.90961C9.00323 7.0797 8.98706 7.04661 8.58222 7.04661H8.33565V6.42504C8.33565 5.84634 8.34141 5.80657 8.41962 5.84839C8.46582 5.87314 8.54169 5.93542 8.58823 5.98687C8.63477 6.03832 8.82766 6.15186 9.01687 6.23921C9.69966 6.55446 10.5318 6.4723 11.1313 6.0304C11.7387 5.58279 12.0502 4.90424 11.9934 4.15287C11.9487 3.56168 11.595 2.9352 11.1223 2.60999L10.9109 2.46455L11.0181 2.31968C11.1074 2.19885 11.1252 2.11349 11.1252 1.80574C11.1252 1.48096 11.1091 1.41239 10.991 1.2339C10.8981 1.09347 10.7808 0.99572 10.6095 0.915991L10.3622 0.80088L5.99653 0.800404L1.63086 0.799927L1.37985 0.925003ZM10.3614 1.41954C10.6526 1.53022 10.6669 2.01374 10.3833 2.16037C10.1795 2.26575 1.81869 2.26575 1.61493 2.16037C1.34008 2.01827 1.34465 1.53336 1.62194 1.42212C1.77544 1.36051 10.1996 1.35803 10.3614 1.41954ZM10.567 2.93586C10.8827 3.10443 11.1332 3.35692 11.2787 3.65333C11.3926 3.88517 11.4112 3.98049 11.4101 4.32859C11.4087 4.81616 11.296 5.0903 10.957 5.43044C10.6516 5.73686 10.2898 5.86842 9.81387 5.84601C9.02054 5.80862 8.43774 5.24466 8.35281 4.43202C8.33593 4.27046 8.29292 4.11405 8.2572 4.08444C8.14958 3.99513 7.94315 4.02183 7.84974 4.13718C7.77082 4.23465 7.76343 4.36373 7.76343 5.64521V7.04661H5.9991H4.23477V5.60177C4.23477 4.54159 4.21956 4.14171 4.17755 4.0997C4.09229 4.01444 3.83102 4.03037 3.74719 4.12593C3.7069 4.17185 3.65965 4.32859 3.64215 4.47431C3.57777 5.01048 3.24293 5.48623 2.76575 5.71969C2.43615 5.88091 1.91654 5.89655 1.5434 5.75646C0.623473 5.41103 0.270368 4.19512 0.863088 3.41381C1.03537 3.18673 1.39778 2.92203 1.62952 2.85408C1.71645 2.82862 3.57434 2.8137 6.07063 2.81842L10.3622 2.82652L10.567 2.93586ZM3.80561 3.27953C3.75316 3.33198 3.71024 3.41781 3.71024 3.47026C3.71024 3.52272 3.75316 3.60855 3.80561 3.661C3.89807 3.75346 3.96454 3.75637 5.9991 3.75637C8.03366 3.75637 8.10013 3.75346 8.19259 3.661C8.24504 3.60855 8.28796 3.52272 8.28796 3.47026C8.28796 3.41781 8.24504 3.33198 8.19259 3.27953C8.10013 3.18707 8.03366 3.18416 5.9991 3.18416C3.96454 3.18416 3.89807 3.18707 3.80561 3.27953ZM1.67182 3.42754C1.12826 3.69662 0.934663 4.31104 1.22082 4.85884C1.60988 5.60358 2.68025 5.58632 3.05453 4.82928C3.39748 4.13566 2.88496 3.32712 2.10241 3.32726C1.96675 3.32726 1.79232 3.36789 1.67182 3.42754ZM9.45623 3.41357C9.00938 3.62319 8.73729 4.15831 8.85507 4.59581C9.10961 5.54106 10.324 5.70562 10.7848 4.85731C11.0468 4.37498 10.8958 3.79419 10.4278 3.48452C10.1696 3.31362 9.73662 3.28201 9.45623 3.41357ZM2.42214 4.03056C2.62069 4.21152 2.64983 4.40445 2.50964 4.61102C2.44874 4.70081 2.33897 4.79408 2.26573 4.81836C1.80257 4.97166 1.45204 4.38595 1.79918 4.03881C1.98639 3.8516 2.22229 3.84845 2.42214 4.03056ZM10.199 4.03881C10.5228 4.36259 10.2392 4.91668 9.79265 4.8329C9.56476 4.79017 9.4107 4.60296 9.4107 4.36869C9.4107 4.21133 9.43921 4.15029 9.56538 4.03762C9.77706 3.84845 10.0091 3.84888 10.199 4.03881ZM4.66393 4.32859C4.61148 4.38104 4.56856 4.46687 4.56856 4.51933C4.56856 4.57178 4.61148 4.65761 4.66393 4.71006C4.75439 4.80052 4.82286 4.80543 5.9991 4.80543C7.17534 4.80543 7.24381 4.80052 7.33427 4.71006C7.38672 4.65761 7.42964 4.57178 7.42964 4.51933C7.42964 4.46687 7.38672 4.38104 7.33427 4.32859C7.24381 4.23813 7.17534 4.23322 5.9991 4.23322C4.82286 4.23322 4.75439 4.23813 4.66393 4.32859ZM4.99772 5.37765C4.94527 5.4301 4.90235 5.51593 4.90235 5.56839C4.90235 5.62084 4.94527 5.70667 4.99772 5.75913C5.08642 5.84782 5.15666 5.85449 5.9991 5.85449C6.84154 5.85449 6.91178 5.84782 7.00048 5.75913C7.05293 5.70667 7.09585 5.62084 7.09585 5.56839C7.09585 5.51593 7.05293 5.4301 7.00048 5.37765C6.91178 5.28896 6.84154 5.28228 5.9991 5.28228C5.15666 5.28228 5.08642 5.28896 4.99772 5.37765ZM8.43101 7.90493V8.19104H5.97526H3.5195V7.90493V7.61882H5.97526H8.43101V7.90493ZM5.04541 13.6032V18.4432H4.64009H4.23477V13.6032V8.76326H4.64009H5.04541V13.6032ZM6.33289 13.6032V18.4432H5.97526H5.61762V13.6032V8.76326H5.97526H6.33289V13.6032ZM7.76343 13.6032V18.4432H7.33427H6.90511V13.6032V8.76326H7.33427H7.76343V13.6032ZM8.64693 19.0724C8.78927 19.1373 8.90786 19.3362 8.90786 19.5101C8.90786 19.575 8.85231 19.694 8.78441 19.7747L8.66095 19.9215H5.9991H3.33725L3.2138 19.7747C3.02115 19.5458 3.07689 19.2245 3.33401 19.082C3.49156 18.9947 8.45667 18.9857 8.64693 19.0724ZM8.7 20.7798C8.78603 20.924 8.85732 21.0581 8.85832 21.0778C8.85932 21.0975 7.57269 21.1136 5.9991 21.1136C4.42551 21.1136 3.13802 21.1013 3.13802 21.0863C3.13802 21.0549 3.37034 20.6425 3.43853 20.5528C3.47444 20.5057 4.0251 20.4955 6.01383 20.5052L8.5435 20.5175L8.7 20.7798ZM10.6476 21.7612C10.824 21.8768 10.8871 22.1211 10.7922 22.3211C10.7499 22.4103 10.6617 22.5076 10.5961 22.5375C10.5097 22.5769 9.24113 22.5918 5.97945 22.5918H1.48194L1.35271 22.4902C1.17428 22.3498 1.11992 22.1868 1.18539 21.9883C1.28929 21.6736 1.02922 21.6898 6.01269 21.6877C10.0561 21.686 10.5446 21.6937 10.6476 21.7612Z" fill="white"/>
</svg>
